<svg width="14" height="14" viewBox="0 0 20 20" fill="none" xmlns="http://www.w3.org/2000/svg">
<g clip-path="url(#clip0_745_35162)">
<path d="M9.37497 12.8125H16.875C17.0407 12.8125 17.1997 12.7466 17.3169 12.6294C17.4341 12.5122 17.5 12.3532 17.5 12.1875V11.5625C17.5 11.3967 17.4341 11.2377 17.3169 11.1205C17.1997 11.0033 17.0407 10.9375 16.875 10.9375H9.37497C9.20921 10.9375 9.05024 11.0033 8.93303 11.1205C8.81582 11.2377 8.74997 11.3967 8.74997 11.5625V12.1875C8.74997 12.3532 8.81582 12.5122 8.93303 12.6294C9.05024 12.7466 9.20921 12.8125 9.37497 12.8125ZM9.37497 5.31247H11.875C12.0407 5.31247 12.1997 5.24662 12.3169 5.12941C12.4341 5.0122 12.5 4.85323 12.5 4.68747V4.06247C12.5 3.89671 12.4341 3.73774 12.3169 3.62053C12.1997 3.50332 12.0407 3.43747 11.875 3.43747H9.37497C9.20921 3.43747 9.05024 3.50332 8.93303 3.62053C8.81582 3.73774 8.74997 3.89671 8.74997 4.06247V4.68747C8.74997 4.85323 8.81582 5.0122 8.93303 5.12941C9.05024 5.24662 9.20921 5.31247 9.37497 5.31247ZM9.37497 9.06247H14.375C14.5407 9.06247 14.6997 8.99662 14.8169 8.87941C14.9341 8.7622 15 8.60323 15 8.43747V7.81247C15 7.64671 14.9341 7.48774 14.8169 7.37053C14.6997 7.25332 14.5407 7.18747 14.375 7.18747H9.37497C9.20921 7.18747 9.05024 7.25332 8.93303 7.37053C8.81582 7.48774 8.74997 7.64671 8.74997 7.81247V8.43747C8.74997 8.60323 8.81582 8.7622 8.93303 8.87941C9.05024 8.99662 9.20921 9.06247 9.37497 9.06247ZM19.375 14.6875H9.37497C9.20921 14.6875 9.05024 14.7533 8.93303 14.8705C8.81582 14.9877 8.74997 15.1467 8.74997 15.3125V15.9375C8.74997 16.1032 8.81582 16.2622 8.93303 16.3794C9.05024 16.4966 9.20921 16.5625 9.37497 16.5625H19.375C19.5407 16.5625 19.6997 16.4966 19.8169 16.3794C19.9341 16.2622 20 16.1032 20 15.9375V15.3125C20 15.1467 19.9341 14.9877 19.8169 14.8705C19.6997 14.7533 19.5407 14.6875 19.375 14.6875ZM1.09371 4.99997H2.81246V18.125C2.81246 18.2907 2.87831 18.4497 2.99552 18.5669C3.11273 18.6841 3.2717 18.75 3.43746 18.75H4.06246C4.22822 18.75 4.38719 18.6841 4.5044 18.5669C4.62161 18.4497 4.68746 18.2907 4.68746 18.125V4.99997H6.40621C6.49781 5.00002 6.58741 4.97323 6.66395 4.92292C6.74048 4.87261 6.8006 4.80097 6.83688 4.71687C6.87316 4.63277 6.884 4.53988 6.86806 4.44968C6.85213 4.35948 6.81012 4.27593 6.74723 4.20935L4.09098 1.39685C4.04717 1.3505 3.99436 1.31359 3.93579 1.28836C3.87722 1.26313 3.81412 1.25012 3.75035 1.25012C3.68658 1.25012 3.62348 1.26313 3.56491 1.28836C3.50634 1.31359 3.45354 1.3505 3.40972 1.39685L0.753471 4.20935C0.690622 4.27588 0.648628 4.35936 0.632669 4.44949C0.61671 4.53961 0.627485 4.63244 0.663665 4.71651C0.699845 4.80058 0.759845 4.87223 0.836265 4.9226C0.912684 4.97297 1.00218 4.99987 1.09371 4.99997Z" fill="#333333"/>
</g>
<defs>
<clipPath id="clip0_745_35162">
<rect width="20" height="20" fill="white"/>
</clipPath>
</defs>
</svg>
