<svg width="14" height="14" viewBox="0 0 20 20" fill="none" xmlns="http://www.w3.org/2000/svg">
<g clip-path="url(#clip0_745_35163)">
<path d="M12.5 4.6875V4.0625C12.5 3.89674 12.4342 3.73777 12.3169 3.62056C12.1997 3.50335 12.0408 3.4375 11.875 3.4375H9.375C9.20924 3.4375 9.05027 3.50335 8.93306 3.62056C8.81585 3.73777 8.75 3.89674 8.75 4.0625V4.6875C8.75 4.85326 8.81585 5.01223 8.93306 5.12944C9.05027 5.24665 9.20924 5.3125 9.375 5.3125H11.875C12.0408 5.3125 12.1997 5.24665 12.3169 5.12944C12.4342 5.01223 12.5 4.85326 12.5 4.6875ZM6.40625 15H4.6875V1.875C4.6875 1.70924 4.62166 1.55027 4.50445 1.43306C4.38723 1.31585 4.22826 1.25 4.0625 1.25H3.4375C3.27174 1.25 3.11277 1.31585 2.99556 1.43306C2.87835 1.55027 2.8125 1.70924 2.8125 1.875V15H1.09375C1.00216 15 0.912559 15.0267 0.836022 15.077C0.759484 15.1274 0.699363 15.199 0.663087 15.2831C0.626811 15.3672 0.61597 15.4601 0.631902 15.5503C0.647835 15.6405 0.689844 15.724 0.752738 15.7906L3.40899 18.6031C3.45129 18.6481 3.50205 18.6842 3.55836 18.7095C3.61467 18.7348 3.67542 18.7487 3.73712 18.7504C3.79883 18.7522 3.86026 18.7417 3.91791 18.7197C3.97556 18.6976 4.02828 18.6644 4.07305 18.6219L4.0918 18.6031L6.74805 15.7906C6.81099 15.724 6.85301 15.6404 6.86892 15.5501C6.88483 15.4598 6.87392 15.3669 6.83755 15.2827C6.80117 15.1986 6.74093 15.127 6.66428 15.0767C6.58762 15.0265 6.49791 14.9998 6.40625 15ZM17.5 12.1875V11.5625C17.5 11.3967 17.4342 11.2378 17.3169 11.1206C17.1997 11.0033 17.0408 10.9375 16.875 10.9375H9.375C9.20924 10.9375 9.05027 11.0033 8.93306 11.1206C8.81585 11.2378 8.75 11.3967 8.75 11.5625V12.1875C8.75 12.3533 8.81585 12.5122 8.93306 12.6294C9.05027 12.7467 9.20924 12.8125 9.375 12.8125H16.875C17.0408 12.8125 17.1997 12.7467 17.3169 12.6294C17.4342 12.5122 17.5 12.3533 17.5 12.1875ZM20 15.9375V15.3125C20 15.1467 19.9342 14.9878 19.8169 14.8706C19.6997 14.7533 19.5408 14.6875 19.375 14.6875H9.375C9.20924 14.6875 9.05027 14.7533 8.93306 14.8706C8.81585 14.9878 8.75 15.1467 8.75 15.3125V15.9375C8.75 16.1033 8.81585 16.2622 8.93306 16.3794C9.05027 16.4967 9.20924 16.5625 9.375 16.5625H19.375C19.5408 16.5625 19.6997 16.4967 19.8169 16.3794C19.9342 16.2622 20 16.1033 20 15.9375ZM15 8.4375V7.8125C15 7.64674 14.9342 7.48777 14.8169 7.37056C14.6997 7.25335 14.5408 7.1875 14.375 7.1875H9.375C9.20924 7.1875 9.05027 7.25335 8.93306 7.37056C8.81585 7.48777 8.75 7.64674 8.75 7.8125V8.4375C8.75 8.60326 8.81585 8.76223 8.93306 8.87944C9.05027 8.99665 9.20924 9.0625 9.375 9.0625H14.375C14.5408 9.0625 14.6997 8.99665 14.8169 8.87944C14.9342 8.76223 15 8.60326 15 8.4375Z" fill="#333333"/>
</g>
<defs>
<clipPath id="clip0_745_35163">
<rect width="20" height="20" fill="white"/>
</clipPath>
</defs>
</svg>
