<svg width="16" height="16" viewBox="0 0 16 16" fill="none" xmlns="http://www.w3.org/2000/svg">
<path d="M14.5573 2.60078H11.4002L10.3802 1.34078C10.2445 1.17312 10.0685 1.03703 9.86613 0.943305C9.6638 0.849577 9.4407 0.800781 9.21448 0.800781L6.78591 0.800781C6.5597 0.800781 6.33659 0.849577 6.13426 0.943305C5.93192 1.03703 5.75592 1.17312 5.6202 1.34078L4.6002 2.60078H1.44305C1.37864 2.60078 1.31687 2.62449 1.27133 2.66668C1.22578 2.70888 1.2002 2.76611 1.2002 2.82578V3.27578C1.2002 3.33545 1.22578 3.39268 1.27133 3.43488C1.31687 3.47708 1.37864 3.50078 1.44305 3.50078H2.0168L3.02466 13.9717C3.05725 14.3074 3.22422 14.6197 3.49274 14.8471C3.76126 15.0746 4.11191 15.2007 4.47573 15.2008H11.5247C11.8885 15.2007 12.2391 15.0746 12.5076 14.8471C12.7762 14.6197 12.9431 14.3074 12.9757 13.9717L13.9836 3.50078H14.5573C14.6217 3.50078 14.6835 3.47708 14.7291 3.43488C14.7746 3.39268 14.8002 3.33545 14.8002 3.27578V2.82578C14.8002 2.76611 14.7746 2.70888 14.7291 2.66668C14.6835 2.62449 14.6217 2.60078 14.5573 2.60078ZM6.39734 1.88078C6.44274 1.82505 6.50144 1.77981 6.56885 1.74858C6.63626 1.71736 6.71055 1.701 6.78591 1.70078H9.21448C9.28984 1.701 9.36413 1.71736 9.43154 1.74858C9.49895 1.77981 9.55765 1.82505 9.60305 1.88078L10.1859 2.60078H5.81448L6.39734 1.88078ZM12.0073 13.8902C11.9973 14.0023 11.9421 14.1068 11.8527 14.1829C11.7632 14.259 11.6461 14.3011 11.5247 14.3008H4.47573C4.35429 14.3011 4.23718 14.259 4.14773 14.1829C4.05828 14.1068 4.00305 14.0023 3.99305 13.8902L2.99127 3.50078H13.0091L12.0073 13.8902Z" fill="#6B7280"/>
</svg>
