<svg width="16" height="16" viewBox="0 0 16 16" fill="none" xmlns="http://www.w3.org/2000/svg">
<path d="M11.6056 9.56467L12.1611 9.00911C12.2667 8.90356 12.4444 8.97856 12.4444 9.12578V13.6897C12.4444 14.4258 11.8472 15.023 11.1111 15.023H1.33333C0.597222 15.023 0 14.4258 0 13.6897V3.91189C0 3.17578 0.597222 2.57856 1.33333 2.57856H9.45278C9.6 2.57856 9.675 2.75911 9.56944 2.86189L9.01389 3.41745C8.98333 3.448 8.93889 3.46745 8.89722 3.46745H1.33333C1.08889 3.46745 0.888889 3.66745 0.888889 3.91189V13.6897C0.888889 13.9341 1.08889 14.1341 1.33333 14.1341H11.1111C11.3556 14.1341 11.5556 13.9341 11.5556 13.6897V9.68134C11.5556 9.63689 11.5722 9.59523 11.6056 9.56467ZM15.6583 4.25356L6.97778 12.9341L4.20278 13.2424C3.83056 13.2841 3.51667 12.9702 3.55833 12.598L3.86667 9.823L12.5472 1.14245C13.0028 0.686892 13.7417 0.686892 14.1972 1.14245L15.6583 2.60356C16.1139 3.05911 16.1139 3.798 15.6583 4.25356ZM13.0583 5.598L11.2056 3.74523L4.71667 10.2313L4.48611 12.3174L6.57222 12.0869L13.0583 5.598ZM15.0306 3.23134L13.5694 1.77023C13.4639 1.66467 13.2861 1.65911 13.1778 1.77023L11.8333 3.11467L13.6861 4.96745L15.0306 3.623C15.1389 3.51745 15.1389 3.33967 15.0306 3.23134Z" fill="#6B7280"/>
</svg>
